<svg width="236" height="206" viewBox="0 0 236 206" fill="none" xmlns="http://www.w3.org/2000/svg">
<g clip-path="url(#clip0_502_18)">
<path d="M21.6148 165.976C24.8294 168.28 20.4911 164.556 23.5 167.5C19.4582 167.331 22.6729 164.977 19.5 166.5C14.6355 168.892 18.0144 169.745 17.3302 165.5C16.4242 160.407 12.8711 168.063 16 162.5C17.3243 166.951 14.5223 159.036 17.3302 163.045C25.0971 153.818 34.8214 148.609 46.7181 147.628C60.5283 146.628 72.4898 151.6 83.8367 158.706C87.6914 161.216 91.5484 163.938 95.1929 166.663C103.339 172.74 111.277 179.245 119.424 185.323C155.223 211.937 191.398 194.958 210.28 171.575C227.908 150.12 231.669 124.563 229.247 97.3728C226.135 65.5119 212.646 37.3788 199.154 9.03312C198.065 6.70602 196.977 4.37893 195.888 2.05184C195.673 1.84155 195.879 1.20141 196.085 0.561277C196.515 0.981858 197.155 1.18752 197.372 1.61041C214.06 30.5592 228.841 60.1666 233.036 93.9294C236.055 117.286 233.752 140.063 222.928 161.444C205.652 195.653 157.044 222.974 111.779 186.257C101.911 178.284 92.2511 169.884 81.3341 163.199C68.7023 155.256 55.2432 149.449 39.9819 153.868C32.5615 155.863 26.0054 159.124 21.6148 165.976Z" fill="white"/>
<path d="M6.44057 173.792L16.2912 151.895L30.3294 171.374L6.44057 173.792Z" fill="#6CD1EF"/>
</g>
<defs>
<clipPath id="clip0_502_18">
<rect width="202.626" height="232.735" fill="white" transform="translate(233.078 0.158325) rotate(89.3759)"/>
</clipPath>
</defs>
</svg>
